Coordinates
version=1
nRows=13
nColumns=40
inDegrees=yes

Units are S.I. units (second, meters, Newtons, ...)
Angles are in degrees.

endheader
time	pelvis_tilt	pelvis_list	pelvis_rotation	pelvis_tx	pelvis_ty	pelvis_tz	hip_flexion_r	hip_adduction_r	hip_rotation_r	knee_angle_r	knee_angle_r_beta	ankle_angle_r	subtalar_angle_r	mtp_angle_r	hip_flexion_l	hip_adduction_l	hip_rotation_l	knee_angle_l	knee_angle_l_beta	ankle_angle_l	subtalar_angle_l	mtp_angle_l	lumbar_extension	lumbar_bending	lumbar_rotation	arm_flex_r	arm_add_r	arm_rot_r	elbow_flex_r	pro_sup_r	wrist_flex_r	wrist_dev_r	arm_flex_l	arm_add_l	arm_rot_l	elbow_flex_l	pro_sup_l	wrist_flex_l	wrist_dev_l
      9.38000000	     -4.92023419	     -4.74961867	      3.76898644	      1.05042219	      0.91390298	      0.51974401	     19.03635617	      5.08937714	     -8.92552251	     27.94295337	     27.94295337	     16.10701068	     -7.41298656	     -1.73563081	     21.53018367	    -13.14966880	      2.90542038	     57.84357872	     57.84357872	     12.78239993	    -14.74993293	      4.94481754	     -9.95332604	      5.80325617	      0.11204770	      3.78800311	    -13.24924965	     -6.11948234	     21.28592360	     46.83521738	      0.00000000	      0.00000000	     22.42819532	    -11.30530759	      1.03009306	     52.74528115	     46.14636769	      0.00000000	      0.00000000
      9.40278571	     -4.45437701	     -4.70831819	      4.05812964	      1.05027706	      0.91161587	      0.52203638	     19.03540572	      5.24586249	     -8.69942607	     29.42066817	     29.42066817	     16.80754806	     -8.45577960	     -1.94364066	     23.14108545	    -12.97836197	      3.98305451	     60.76321033	     60.76321033	     12.61264183	    -16.04871527	      5.22908138	    -10.20454784	      5.58691402	      0.26767413	      7.35982573	    -13.10563910	     -6.13336321	     22.52877602	     46.82132149	      0.00000000	      0.00000000	     19.19262488	    -11.07891273	      1.64015173	     49.87589605	     46.04402960	      0.00000000	      0.00000000
      9.42557143	     -3.93341488	     -4.69271759	      4.39990982	      1.05012734	      0.90941627	      0.52428112	     18.91293686	      5.47889169	     -8.42936453	     30.80033427	     30.80033427	     17.53862166	     -9.63043185	     -2.02565002	     24.66570251	    -12.86488398	      4.99936166	     63.23091074	     63.23091074	     12.53728354	    -17.14117941	      5.79700476	    -10.55140071	      5.43236632	      0.44293860	     11.19419013	    -13.04318651	     -6.11996178	     23.77391022	     46.80482721	      0.00000000	      0.00000000	     16.07223683	    -10.82857187	      2.30156495	     46.51612088	     45.93382795	      0.00000000	      0.00000000
      9.44835714	     -3.40478665	     -4.60386752	      4.72676304	      1.05000830	      0.90769920	      0.52639480	     18.63851707	      5.68754964	     -8.06719601	     31.94750335	     31.94750335	     18.40708329	    -10.67557782	     -1.04982731	     26.10634655	    -12.68181666	      5.87185505	     65.16202751	     65.16202751	     13.68861502	    -17.62293099	      9.50558319	    -10.71926239	      5.20020834	      1.06162935	     15.55348369	    -12.96425173	     -5.89194959	     23.17855101	     46.85813111	      0.00000000	      0.00000000	     14.52203864	    -10.02730787	      3.69693651	     38.98900760	     45.79116840	      0.00000000	      0.00000000
      9.47114286	     -2.97533144	     -4.52245233	      5.15122475	      1.04974548	      0.90608294	      0.52819210	     18.37376902	      5.83494819	     -7.92627092	     32.88315316	     32.88315316	     18.96433831	    -11.63521283	     -0.97160647	     27.49197669	    -12.61833916	      6.54102682	     66.09889085	     66.09889085	     13.75578196	    -18.28694240	     10.15340679	    -10.97271967	      4.96534945	      1.04175438	     19.52544808	    -12.81638517	     -6.01643800	     25.00975533	     46.82454927	      0.00000000	      0.00000000	     11.21357363	     -9.87640031	      4.22344390	     35.97666579	     45.68808500	      0.00000000	      0.00000000
      9.49392857	     -2.55192203	     -4.45327489	      5.63361866	      1.04934682	      0.90507958	      0.52960249	     17.96589493	      5.98583825	     -7.84752908	     33.53807899	     33.53807899	     19.66884715	    -12.37469191	     -0.15425945	     28.81570506	    -12.55850154	      7.12531684	     66.26656299	     66.26656299	     14.63638961	    -18.59035338	     12.90910348	    -11.19635221	      4.75907676	      1.63626969	     23.56502698	    -13.02221463	     -6.12503893	     25.86615053	     46.82181073	      0.00000000	      0.00000000	      9.29964463	     -9.28387997	      5.34315026	     30.47625182	     45.54878826	      0.00000000	      0.00000000
      9.51671429	     -2.25516617	     -4.34913446	      6.12467175	      1.04887339	      0.90455243	      0.53057662	     17.49977678	      6.00880875	     -7.95731133	     33.82420639	     33.82420639	     20.04577617	    -12.78503244	     -0.19528086	     30.00452100	    -12.61043082	      7.30424051	     65.29362885	     65.29362885	     14.63593804	    -18.87363266	     13.14258241	    -11.37103442	      4.48875592	      2.79672238	     27.06045569	    -13.94567815	     -6.26269909	     27.34789633	     46.80157669	      0.00000000	      0.00000000	      6.45225474	     -8.85480927	      5.54858353	     29.03771115	     45.47573517	      0.00000000	      0.00000000
      9.53950000	     -2.01400694	     -4.23505015	      6.81850406	      1.04819069	      0.90472789	      0.53102575	     16.93303812	      6.01870975	     -8.12068976	     33.75175554	     33.75175554	     20.24294109	    -13.47239864	      0.13077620	     31.07092507	    -12.52678888	      7.50065368	     63.36328559	     63.36328559	     14.75316144	    -18.99648671	     13.73713108	    -11.49296634	      4.27337024	      2.04153361	     31.36283008	    -13.41247968	     -6.32831048	     29.85229783	     46.72983445	      0.00000000	      0.00000000	      3.27253075	     -8.98819064	      6.08575982	     26.14408166	     45.34883051	      0.00000000	      0.00000000
      9.56228571	     -1.91836387	     -4.08791155	      7.52081707	      1.04733473	      0.90542782	      0.53091033	     16.35231149	      5.89640042	     -8.44997586	     33.37191391	     33.37191391	     20.40841407	    -13.71707022	      0.39697545	     32.00496322	    -12.36108798	      7.43386054	     60.50071618	     60.50071618	     14.60119824	    -19.03087606	     14.13725619	    -11.48126110	      4.02270963	      2.40186859	     35.16273849	    -13.93813007	     -6.36670909	     31.86428378	     46.67265861	      0.00000000	      0.00000000	      0.59133051	     -8.83073413	      6.55274223	     24.15935986	     45.22946669	      0.00000000	      0.00000000
      9.58507143	     -1.90177144	     -3.90645876	      8.27385649	      1.04636673	      0.90670886	      0.53027299	     15.68783571	      5.67609273	     -8.90491707	     32.68682481	     32.68682481	     20.45023992	    -13.76639346	      0.63287629	     32.65946334	    -12.03994842	      7.22350292	     56.74444044	     56.74444044	     14.09230340	    -18.97846322	     14.19199961	    -11.42553829	      3.74034989	      2.76807205	     38.92849147	    -14.63702497	     -6.36569806	     34.00641848	     46.60747924	      0.00000000	      0.00000000	     -2.06067250	     -8.73668626	      6.95174596	     22.71431733	     45.11032360	      0.00000000	      0.00000000
      9.60785714	     -1.99065380	     -3.69087596	      9.06388793	      1.04532159	      0.90839951	      0.52911137	     14.99267666	      5.36764553	     -9.45898059	     31.74938785	     31.74938785	     20.38906283	    -13.67922665	      0.83165748	     33.03766401	    -11.52612435	      6.93169912	     52.25414484	     52.25414484	     13.15438671	    -18.77985720	     14.07755607	    -11.26320060	      3.44379009	      3.19464297	     42.61824955	    -15.51101630	     -6.34405632	     36.13664495	     46.54284232	      0.00000000	      0.00000000	     -4.63796493	     -8.68285340	      7.24842633	     21.77336300	     45.00107146	      0.00000000	      0.00000000
      9.63064286	     -2.16642988	     -3.53257011	      9.90794713	      1.04426770	      0.91013407	      0.52755111	     14.29879881	      5.03606023	    -10.23428941	     30.65209913	     30.65209913	     20.23157067	    -13.25426700	      0.55689130	     33.02987187	    -11.05374022	      6.42122653	     46.87980446	     46.87980446	     10.16187921	    -18.52136534	      9.23190331	    -11.08338111	      3.26137978	      3.28629832	     45.76875072	    -16.44747830	     -5.18462822	     40.25167851	     46.30337833	      0.00000000	      0.00000000	     -7.82639748	     -8.93622735	      8.54518178	     22.53843269	     44.63869130	      0.00000000	      0.00000000
      9.65342857	     -2.32376072	     -3.40706927	     10.72039872	      1.04327521	      0.91208471	      0.52562537	     13.47200522	      4.76265779	    -11.01069017	     29.33963657	     29.33963657	     19.95211120	    -12.85554487	      0.26452460	     32.74067350	    -10.43723282	      6.04456533	     41.37220429	     41.37220429	      7.74087448	    -17.80476530	      6.84472293	    -10.89519940	      3.09292165	      3.63258759	     49.22725679	    -17.63734261	     -4.26352536	     43.02293520	     46.14531888	      0.00000000	      0.00000000	    -10.62522873	     -9.15309416	     10.03370428	     23.21800967	     44.28405598	      0.00000000	      0.00000000
